# This file uses centimeters as units for non-parametric coordinates.

mtllib Lightning1.mtl
g default
v -0.883817 -0.077546 -0.298978
v -0.943821 -0.087158 -0.431997
v -0.791516 -0.102373 -0.453926
v -0.510349 -0.207161 -0.377889
v -0.139449 -0.302463 -0.353352
v 0.306996 -0.362644 -0.345444
v 0.671391 -0.379819 -0.287217
v 0.894178 -0.281880 -0.213697
v 0.919770 -0.186421 -0.038282
v 0.821838 -0.009582 0.183265
v 0.656094 0.134110 0.411568
v -0.600558 0.067578 0.188113
v -0.753442 0.001793 -0.083350
v -0.996565 -0.168404 -0.322261
v -1.004474 -0.175402 -0.524135
v -0.831255 -0.212664 -0.581659
v -0.532814 -0.343851 -0.494890
v -0.136053 -0.459282 -0.458579
v 0.330857 -0.535536 -0.436309
v 0.709388 -0.517690 -0.375589
v 0.950102 -0.380133 -0.290582
v 0.995895 -0.299893 -0.069757
v 0.900974 -0.149601 0.211752
v 0.719605 -0.015163 0.476332
v -0.740069 -0.064306 0.268806
v -0.900427 -0.099810 -0.035840
v -1.005919 -0.276133 -0.328598
v -0.985203 -0.328741 -0.530089
v -0.817823 -0.377317 -0.577054
v -0.520139 -0.511332 -0.499462
v -0.131195 -0.611397 -0.463553
v 0.309753 -0.685275 -0.441818
v 0.669659 -0.663093 -0.376457
v 0.906515 -0.531402 -0.303170
v 0.953356 -0.424804 -0.103774
v 0.877778 -0.271523 0.180158
v 0.700323 -0.167398 0.451861
v -0.810021 -0.223083 0.291018
v -0.961534 -0.222754 -0.013494
vt 0.185336 0.041484
vt 0.264277 0.041484
vt 0.343217 0.041484
vt 0.422158 0.041484
vt 0.501099 0.041484
vt 0.580039 0.041484
vt 0.658980 0.041484
vt 0.737920 0.041484
vt 0.816861 0.041484
vt 0.895801 0.041484
vt 0.974742 0.041484
vt 0.026957 0.041484
vt 0.105898 0.041484
vt 0.184838 0.041484
vt 0.185336 0.500000
vt 0.264277 0.500000
vt 0.343217 0.500000
vt 0.422158 0.500000
vt 0.501099 0.500000
vt 0.580039 0.500000
vt 0.658980 0.500000
vt 0.737920 0.500000
vt 0.816861 0.500000
vt 0.895801 0.500000
vt 0.974742 0.500000
vt 0.026957 0.500000
vt 0.105898 0.500000
vt 0.184838 0.500000
vt 0.185336 0.958516
vt 0.264277 0.958516
vt 0.343217 0.958516
vt 0.422158 0.958516
vt 0.501099 0.958516
vt 0.580039 0.958516
vt 0.658980 0.958516
vt 0.737920 0.958516
vt 0.816861 0.958516
vt 0.895801 0.958516
vt 0.974742 0.958516
vt 0.026957 0.958516
vt 0.105898 0.958516
vt 0.184838 0.958516
vn -0.622523 0.781248 0.046005
vn -0.465393 0.825627 -0.318982
vn -0.692930 0.390779 -0.605921
vn -0.894052 0.438931 0.089501
vn 0.303011 0.644748 -0.701772
vn 0.165463 0.377115 -0.911266
vn 0.315097 0.582776 -0.749057
vn 0.274288 0.342123 -0.898731
vn 0.163990 0.548868 -0.819666
vn 0.123376 0.319327 -0.939579
vn 0.116769 0.514928 -0.849243
vn 0.117923 0.283032 -0.951833
vn 0.080107 0.537982 -0.839142
vn 0.180269 0.269124 -0.946084
vn 0.361514 0.652202 -0.666288
vn 0.606069 0.276156 -0.745935
vn 0.828174 0.552351 -0.095054
vn 0.993745 0.076960 0.080917
vn 0.833126 0.508347 0.217910
vn 0.912230 0.146117 0.382735
vn 0.816189 0.497282 0.294188
vn 0.860364 0.260490 0.438084
vn -0.574951 0.799910 0.171976
vn -0.581721 0.803002 0.129571
vn -0.744880 0.632836 0.211361
vn -0.694063 0.666776 0.271452
vn -0.682368 -0.036926 -0.730076
vn -0.988472 0.134953 0.068638
vn 0.136322 0.009818 -0.990616
vn 0.156398 0.031003 -0.987207
vn 0.072443 0.033156 -0.996821
vn 0.101215 0.013184 -0.994777
vn 0.204401 -0.021633 -0.978648
vn 0.574425 -0.130496 -0.808088
vn 0.944960 -0.312477 0.096999
vn 0.807838 -0.301678 0.506347
vn 0.753316 -0.241790 0.611599
vn -0.875652 0.382873 0.294350
vn -0.810034 0.438424 0.389397
s 1
g pSphere2
usemtl pSphere2SG1
f 1/1/1 2/2/2 15/16/3 14/15/4
f 2/2/2 3/3/5 16/17/6 15/16/3
f 3/3/5 4/4/7 17/18/8 16/17/6
f 4/4/7 5/5/9 18/19/10 17/18/8
f 5/5/9 6/6/11 19/20/12 18/19/10
f 6/6/11 7/7/13 20/21/14 19/20/12
f 7/7/13 8/8/15 21/22/16 20/21/14
f 8/8/15 9/9/17 22/23/18 21/22/16
f 9/9/17 10/10/19 23/24/20 22/23/18
f 10/10/19 11/11/21 24/25/22 23/24/20
f 12/12/23 13/13/24 26/27/25 25/26/26
f 13/13/24 1/14/1 14/28/4 26/27/25
f 14/15/4 15/16/3 28/30/27 27/29/28
f 15/16/3 16/17/6 29/31/29 28/30/27
f 16/17/6 17/18/8 30/32/30 29/31/29
f 17/18/8 18/19/10 31/33/31 30/32/30
f 18/19/10 19/20/12 32/34/32 31/33/31
f 19/20/12 20/21/14 33/35/33 32/34/32
f 20/21/14 21/22/16 34/36/34 33/35/33
f 21/22/16 22/23/18 35/37/35 34/36/34
f 22/23/18 23/24/20 36/38/36 35/37/35
f 23/24/20 24/25/22 37/39/37 36/38/36
f 25/26/26 26/27/25 39/41/38 38/40/39
f 26/27/25 14/28/4 27/42/28 39/41/38
